<svg width="669" height="248" viewBox="0 0 669 248" fill="none" xmlns="http://www.w3.org/2000/svg">
<rect x="0.5" y="0.5" width="668" height="247" rx="4.5" stroke="#8A38F5" stroke-dasharray="10 5"/>
<rect width="629" height="37" transform="translate(20 20)" fill="url(#paint0_linear_24_530)"/>
<path d="M305.39 31.4205V29.5455H318.48V31.4205H312.992V47H310.878V31.4205H305.39ZM321.743 47V29.5455H332.277V31.4205H323.856V37.3182H331.731V39.1932H323.856V45.125H332.413V47H321.743ZM337.109 29.5455L341.609 36.8068H341.745L346.245 29.5455H348.734L343.245 38.2727L348.734 47H346.245L341.745 39.875H341.609L337.109 47H334.62L340.245 38.2727L334.62 29.5455H337.109ZM350.53 31.4205V29.5455H363.621V31.4205H358.132V47H356.019V31.4205H350.53Z" fill="black"/>
<rect width="629" height="37" transform="translate(20 77)" fill="url(#paint1_linear_24_530)"/>
<path d="M305.39 88.4205V86.5455H318.48V88.4205H312.992V104H310.878V88.4205H305.39ZM321.743 104V86.5455H332.277V88.4205H323.856V94.3182H331.731V96.1932H323.856V102.125H332.413V104H321.743ZM337.109 86.5455L341.609 93.8068H341.745L346.245 86.5455H348.734L343.245 95.2727L348.734 104H346.245L341.745 96.875H341.609L337.109 104H334.62L340.245 95.2727L334.62 86.5455H337.109ZM350.53 88.4205V86.5455H363.621V88.4205H358.132V104H356.019V88.4205H350.53Z" fill="black"/>
<path d="M305.39 145.42V143.545H318.48V145.42H312.992V161H310.878V145.42H305.39ZM321.743 161V143.545H332.277V145.42H323.856V151.318H331.731V153.193H323.856V159.125H332.413V161H321.743ZM337.109 143.545L341.609 150.807H341.745L346.245 143.545H348.734L343.245 152.273L348.734 161H346.245L341.745 153.875H341.609L337.109 161H334.62L340.245 152.273L334.62 143.545H337.109ZM350.53 145.42V143.545H363.621V145.42H358.132V161H356.019V145.42H350.53Z" fill="black"/>
<rect width="629" height="37" transform="translate(20 191)" fill="url(#paint2_linear_24_530)"/>
<path d="M305.39 202.42V200.545H318.48V202.42H312.992V218H310.878V202.42H305.39ZM321.743 218V200.545H332.277V202.42H323.856V208.318H331.731V210.193H323.856V216.125H332.413V218H321.743ZM337.109 200.545L341.609 207.807H341.745L346.245 200.545H348.734L343.245 209.273L348.734 218H346.245L341.745 210.875H341.609L337.109 218H334.62L340.245 209.273L334.62 200.545H337.109ZM350.53 202.42V200.545H363.621V202.42H358.132V218H356.019V202.42H350.53Z" fill="black"/>
<defs>
<linearGradient id="paint0_linear_24_530" x1="314.5" y1="0" x2="314.5" y2="37" gradientUnits="userSpaceOnUse">
<stop stop-color="#016901"/>
<stop offset="0.149038" stop-color="#009100" stop-opacity="0.25"/>
<stop offset="0.85" stop-color="#009100" stop-opacity="0.25"/>
<stop offset="1" stop-color="#016901"/>
</linearGradient>
<linearGradient id="paint1_linear_24_530" x1="314.5" y1="0" x2="314.5" y2="37" gradientUnits="userSpaceOnUse">
<stop stop-color="#910000"/>
<stop offset="0.15" stop-color="#910000" stop-opacity="0.25"/>
<stop offset="0.85" stop-color="#910000" stop-opacity="0.25"/>
<stop offset="1" stop-color="#910000"/>
</linearGradient>
<linearGradient id="paint2_linear_24_530" x1="314.5" y1="0" x2="314.5" y2="37" gradientUnits="userSpaceOnUse">
<stop stop-color="#CDFCFF"/>
<stop offset="0.504808" stop-color="#999999"/>
<stop offset="1" stop-color="#CDFCFF"/>
</linearGradient>
</defs>
</svg>
